<svg width="78" height="12" viewBox="0 0 78 12" fill="none" xmlns="http://www.w3.org/2000/svg">
<path d="M0.804188 8.664C0.804188 8.48 0.820188 8.264 0.852188 8.016C0.884188 7.768 0.944188 7.488 1.03219 7.176C1.12019 6.856 1.25219 6.5 1.42819 6.108L2.90419 6.624C2.81619 6.872 2.74019 7.1 2.67619 7.308C2.61219 7.508 2.56419 7.696 2.53219 7.872C2.50019 8.04 2.48419 8.208 2.48419 8.376C2.48419 8.784 2.57219 9.12 2.74819 9.384C2.93219 9.648 3.18819 9.844 3.51619 9.972C3.84419 10.1 4.22419 10.164 4.65619 10.164C5.23219 10.164 5.68819 10.068 6.02419 9.876C6.36019 9.684 6.60419 9.416 6.75619 9.072C6.90819 8.736 7.00019 8.344 7.03219 7.896C7.07219 7.44 7.08419 6.956 7.06819 6.444L6.84019 0.215999H8.53219L8.73619 6.336C8.75219 6.856 8.73219 7.376 8.67619 7.896C8.62819 8.416 8.52019 8.908 8.35219 9.372C8.19219 9.836 7.95619 10.248 7.64419 10.608C7.33219 10.968 6.92819 11.252 6.43219 11.46C5.94419 11.668 5.34019 11.772 4.62019 11.772C4.10019 11.772 3.60819 11.712 3.14419 11.592C2.68819 11.472 2.28419 11.284 1.93219 11.028C1.58019 10.78 1.30419 10.46 1.10419 10.068C0.904188 9.676 0.804188 9.208 0.804188 8.664ZM10.0707 11.76L9.72272 10.08C10.2907 10.008 10.7867 9.92 11.2107 9.816C11.6347 9.72 11.9907 9.584 12.2787 9.408C12.5667 9.232 12.7827 8.992 12.9267 8.688C13.0707 8.376 13.1427 7.976 13.1427 7.488C13.1427 7.016 13.0707 6.64 12.9267 6.36C12.7827 6.08 12.5907 5.94 12.3507 5.94C12.1827 5.94 12.0427 6 11.9307 6.12C11.8187 6.232 11.7347 6.368 11.6787 6.528C11.6307 6.68 11.6067 6.816 11.6067 6.936C11.6067 7.008 11.6267 7.084 11.6667 7.164C11.7067 7.244 11.7947 7.312 11.9307 7.368C12.0667 7.424 12.2787 7.456 12.5667 7.464C12.8627 7.472 13.2627 7.444 13.7667 7.38H15.7827C16.0867 7.38 16.3027 7.46 16.4307 7.62C16.5667 7.772 16.6347 7.964 16.6347 8.196C16.6347 8.444 16.5507 8.652 16.3827 8.82C16.2147 8.98 15.9747 9.06 15.6627 9.06H12.3627C11.8587 9.06 11.4267 9 11.0667 8.88C10.7067 8.76 10.4307 8.568 10.2387 8.304C10.0467 8.032 9.95072 7.672 9.95072 7.224C9.95072 6.864 10.0107 6.504 10.1307 6.144C10.2587 5.784 10.4347 5.456 10.6587 5.16C10.8827 4.856 11.1427 4.616 11.4387 4.44C11.7427 4.256 12.0707 4.164 12.4227 4.164C12.9027 4.164 13.3227 4.312 13.6827 4.608C14.0427 4.904 14.3227 5.296 14.5227 5.784C14.7307 6.272 14.8347 6.804 14.8347 7.38C14.8347 8.284 14.6427 9.052 14.2587 9.684C13.8747 10.316 13.3267 10.804 12.6147 11.148C11.9027 11.5 11.0547 11.704 10.0707 11.76ZM15.6797 9.06L15.7997 7.38C16.2317 7.38 16.6597 7.356 17.0837 7.308C17.5077 7.26 17.9197 7.188 18.3197 7.092C18.7197 6.996 19.0997 6.872 19.4597 6.72C19.8277 6.568 20.1717 6.384 20.4917 6.168C20.2517 6.024 19.9917 5.9 19.7117 5.796C19.4317 5.692 19.1317 5.616 18.8117 5.568C18.4997 5.512 18.1677 5.484 17.8157 5.484C17.6877 5.484 17.5517 5.488 17.4077 5.496C17.2717 5.504 17.1317 5.52 16.9877 5.544C16.8437 5.56 16.6997 5.584 16.5557 5.616L16.3157 3.972C16.5477 3.908 16.7917 3.864 17.0477 3.84C17.3117 3.808 17.5437 3.792 17.7437 3.792C18.1757 3.792 18.5717 3.84 18.9317 3.936C19.2997 4.032 19.6357 4.152 19.9397 4.296C20.2517 4.44 20.5397 4.584 20.8037 4.728C21.0757 4.872 21.3317 4.992 21.5717 5.088C21.8197 5.184 22.0597 5.232 22.2917 5.232H22.7357L22.9277 6.828C22.5837 6.844 22.2597 6.912 21.9557 7.032C21.6597 7.144 21.3637 7.288 21.0677 7.464C20.7797 7.632 20.4677 7.808 20.1317 7.992C19.8037 8.176 19.4317 8.348 19.0157 8.508C18.5997 8.668 18.1197 8.8 17.5757 8.904C17.0317 9.008 16.3997 9.06 15.6797 9.06ZM17.7557 2.676C17.5077 2.676 17.2957 2.592 17.1197 2.424C16.9517 2.256 16.8677 2.048 16.8677 1.8C16.8677 1.552 16.9517 1.34 17.1197 1.164C17.2957 0.988 17.5077 0.9 17.7557 0.9C17.9957 0.9 18.1997 0.988 18.3677 1.164C18.5437 1.34 18.6317 1.552 18.6317 1.8C18.6317 2.048 18.5437 2.256 18.3677 2.424C18.1997 2.592 17.9957 2.676 17.7557 2.676ZM25.8426 7.38C26.2026 7.38 26.4786 7.348 26.6706 7.284C26.8626 7.22 26.9946 7.136 27.0666 7.032C27.1386 6.928 27.1746 6.816 27.1746 6.696C27.1746 6.504 27.1186 6.28 27.0066 6.024C26.9026 5.768 26.7706 5.5 26.6106 5.22C26.4506 4.94 26.2826 4.672 26.1066 4.416C25.9386 4.16 25.7866 3.936 25.6506 3.744L27.0786 2.796C27.4226 3.26 27.7186 3.72 27.9666 4.176C28.2146 4.624 28.4146 5.04 28.5666 5.424C28.7266 5.808 28.8386 6.136 28.9026 6.408C28.9666 6.664 29.0626 6.864 29.1906 7.008C29.3266 7.144 29.4826 7.24 29.6586 7.296C29.8346 7.352 30.0106 7.38 30.1866 7.38C30.4906 7.38 30.7066 7.46 30.8346 7.62C30.9706 7.772 31.0386 7.964 31.0386 8.196C31.0386 8.444 30.9546 8.652 30.7866 8.82C30.6266 8.98 30.3866 9.06 30.0666 9.06C29.7146 9.06 29.4066 9.012 29.1426 8.916C28.8786 8.82 28.6546 8.668 28.4706 8.46C28.2866 8.252 28.1306 7.988 28.0026 7.668L28.7346 7.824C28.6706 8.048 28.5226 8.256 28.2906 8.448C28.0666 8.632 27.7666 8.784 27.3906 8.904C27.0226 9.016 26.5866 9.072 26.0826 9.072C25.8426 9.072 25.5746 9.052 25.2786 9.012C24.9906 8.972 24.7026 8.912 24.4146 8.832C24.1346 8.752 23.8786 8.648 23.6466 8.52L24.2346 6.996C24.5306 7.124 24.8146 7.22 25.0866 7.284C25.3666 7.348 25.6186 7.38 25.8426 7.38ZM30.082 9.06L30.202 7.38C30.57 7.38 30.834 7.344 30.994 7.272C31.154 7.192 31.25 7.048 31.282 6.84C31.314 6.624 31.322 6.312 31.306 5.904L31.09 0.215999H32.782L33.022 6.024C33.038 6.488 33.018 6.908 32.962 7.284C32.914 7.652 32.79 7.968 32.59 8.232C32.398 8.496 32.098 8.7 31.69 8.844C31.29 8.988 30.754 9.06 30.082 9.06ZM34.6045 9L34.3525 0.215999H36.0325L36.2845 9H34.6045ZM39.5229 8.664C39.5229 8.48 39.5389 8.264 39.5709 8.016C39.6029 7.768 39.6629 7.488 39.7509 7.176C39.8389 6.856 39.9709 6.5 40.1469 6.108L41.6229 6.624C41.5349 6.872 41.4589 7.1 41.3949 7.308C41.3309 7.508 41.2829 7.696 41.2509 7.872C41.2189 8.04 41.2029 8.208 41.2029 8.376C41.2029 8.736 41.2909 9.048 41.4669 9.312C41.6509 9.584 41.8989 9.792 42.2109 9.936C42.5309 10.088 42.8989 10.164 43.3149 10.164C43.9949 10.164 44.5149 10.052 44.8749 9.828C45.2429 9.612 45.4909 9.268 45.6189 8.796C45.7549 8.316 45.8069 7.696 45.7749 6.936L45.5349 0.215999H47.2269L47.4069 5.892C47.4229 6.292 47.4789 6.6 47.5749 6.816C47.6709 7.032 47.8189 7.18 48.0189 7.26C48.2269 7.34 48.4949 7.38 48.8229 7.38C49.1269 7.38 49.3429 7.46 49.4709 7.62C49.5989 7.772 49.6629 7.964 49.6629 8.196C49.6629 8.444 49.5789 8.652 49.4109 8.82C49.2429 8.98 49.0069 9.06 48.7029 9.06C48.5269 9.06 48.3389 9.036 48.1389 8.988C47.9389 8.94 47.7469 8.864 47.5629 8.76C47.3789 8.656 47.2189 8.52 47.0829 8.352C46.9469 8.176 46.8549 7.96 46.8069 7.704L47.4549 7.38C47.4549 8.188 47.3589 8.872 47.1669 9.432C46.9829 9.992 46.7109 10.444 46.3509 10.788C45.9989 11.132 45.5629 11.38 45.0429 11.532C44.5309 11.692 43.9389 11.772 43.2669 11.772C42.7549 11.772 42.2709 11.708 41.8149 11.58C41.3669 11.452 40.9709 11.26 40.6269 11.004C40.2829 10.748 40.0109 10.424 39.8109 10.032C39.6189 9.648 39.5229 9.192 39.5229 8.664ZM48.7031 9.06L48.8231 7.38C49.1111 7.38 49.3591 7.352 49.5671 7.296C49.7751 7.24 49.9511 7.128 50.0951 6.96C50.2391 6.784 50.3591 6.528 50.4551 6.192C50.5591 5.856 50.6511 5.408 50.7311 4.848L52.3031 5.112C52.2871 5.232 52.2631 5.372 52.2311 5.532C52.2071 5.692 52.1831 5.856 52.1591 6.024C52.1431 6.184 52.1351 6.336 52.1351 6.48C52.1351 6.624 52.1631 6.752 52.2191 6.864C52.2751 6.976 52.3631 7.072 52.4831 7.152C52.6111 7.224 52.7751 7.28 52.9751 7.32C53.1831 7.36 53.4351 7.38 53.7311 7.38C54.0351 7.38 54.2511 7.46 54.3791 7.62C54.5071 7.772 54.5711 7.964 54.5711 8.196C54.5711 8.444 54.4871 8.652 54.3191 8.82C54.1591 8.98 53.9231 9.06 53.6111 9.06C53.2511 9.06 52.9231 9.032 52.6271 8.976C52.3391 8.92 52.0871 8.828 51.8711 8.7C51.6631 8.564 51.4911 8.388 51.3551 8.172C51.2271 7.948 51.1471 7.676 51.1151 7.356H51.6911C51.5471 7.74 51.3631 8.048 51.1391 8.28C50.9231 8.504 50.6791 8.672 50.4071 8.784C50.1351 8.896 49.8511 8.968 49.5551 9C49.2671 9.04 48.9831 9.06 48.7031 9.06ZM52.0511 11.844C51.8191 11.844 51.6191 11.76 51.4511 11.592C51.2911 11.432 51.2111 11.24 51.2111 11.016C51.2111 10.784 51.2911 10.584 51.4511 10.416C51.6191 10.248 51.8191 10.164 52.0511 10.164C52.2751 10.164 52.4671 10.248 52.6271 10.416C52.7871 10.584 52.8671 10.784 52.8671 11.016C52.8671 11.24 52.7871 11.432 52.6271 11.592C52.4671 11.76 52.2751 11.844 52.0511 11.844ZM49.9751 11.844C49.7431 11.844 49.5431 11.76 49.3751 11.592C49.2151 11.432 49.1351 11.24 49.1351 11.016C49.1351 10.784 49.2151 10.584 49.3751 10.416C49.5431 10.248 49.7431 10.164 49.9751 10.164C50.1991 10.164 50.3911 10.248 50.5511 10.416C50.7111 10.584 50.7911 10.784 50.7911 11.016C50.7911 11.24 50.7111 11.432 50.5511 11.592C50.3911 11.76 50.1991 11.844 49.9751 11.844ZM61.4613 9.06C61.0933 9.06 60.7493 9.032 60.4293 8.976C60.1173 8.92 59.8293 8.824 59.5653 8.688C59.3013 8.544 59.0653 8.348 58.8573 8.1C58.6573 7.852 58.4893 7.54 58.3533 7.164L59.3013 6.408C59.4453 6.664 59.6213 6.864 59.8293 7.008C60.0373 7.144 60.2853 7.24 60.5733 7.296C60.8613 7.352 61.1973 7.38 61.5813 7.38C61.8853 7.38 62.1013 7.46 62.2293 7.62C62.3573 7.772 62.4213 7.964 62.4213 8.196C62.4213 8.444 62.3373 8.652 62.1693 8.82C62.0093 8.98 61.7733 9.06 61.4613 9.06ZM53.6133 9.06L53.7333 7.38C54.1653 7.38 54.5933 7.356 55.0173 7.308C55.4413 7.26 55.8533 7.188 56.2533 7.092C56.6533 6.996 57.0333 6.872 57.3933 6.72C57.7613 6.568 58.1053 6.384 58.4253 6.168C58.1853 6.024 57.9253 5.9 57.6453 5.796C57.3653 5.692 57.0653 5.616 56.7453 5.568C56.4333 5.512 56.1013 5.484 55.7493 5.484C55.6213 5.484 55.4853 5.488 55.3413 5.496C55.2053 5.504 55.0653 5.52 54.9213 5.544C54.7773 5.56 54.6333 5.584 54.4893 5.616L54.2493 3.972C54.4813 3.908 54.7253 3.864 54.9813 3.84C55.2453 3.808 55.4773 3.792 55.6773 3.792C56.1093 3.792 56.5053 3.84 56.8653 3.936C57.2333 4.032 57.5693 4.152 57.8733 4.296C58.1853 4.44 58.4733 4.584 58.7373 4.728C59.0093 4.872 59.2653 4.992 59.5053 5.088C59.7533 5.184 59.9933 5.232 60.2253 5.232H60.6693L60.8613 6.828C60.5173 6.844 60.1933 6.912 59.8893 7.032C59.5933 7.144 59.2973 7.288 59.0013 7.464C58.7133 7.632 58.4013 7.808 58.0653 7.992C57.7373 8.176 57.3653 8.348 56.9493 8.508C56.5333 8.668 56.0533 8.8 55.5093 8.904C54.9653 9.008 54.3333 9.06 53.6133 9.06ZM57.0093 11.76C56.7773 11.76 56.5773 11.68 56.4093 11.52C56.2493 11.36 56.1693 11.164 56.1693 10.932C56.1693 10.7 56.2493 10.496 56.4093 10.32C56.5773 10.152 56.7773 10.068 57.0093 10.068C57.2413 10.068 57.4373 10.152 57.5973 10.32C57.7653 10.496 57.8493 10.7 57.8493 10.932C57.8493 11.164 57.7653 11.36 57.5973 11.52C57.4373 11.68 57.2413 11.76 57.0093 11.76ZM61.4648 9.06L61.5848 7.38C61.8488 7.38 62.0648 7.36 62.2328 7.32C62.4008 7.272 62.5368 7.172 62.6408 7.02C62.7528 6.86 62.8488 6.624 62.9288 6.312C63.0168 5.992 63.1128 5.56 63.2168 5.016L64.7768 5.304C64.7448 5.48 64.7008 5.7 64.6448 5.964C64.5968 6.228 64.5728 6.456 64.5728 6.648C64.5728 6.8 64.6008 6.932 64.6568 7.044C64.7208 7.148 64.8248 7.232 64.9688 7.296C65.1208 7.352 65.3288 7.38 65.5928 7.38C65.8008 7.38 65.9768 7.36 66.1208 7.32C66.2728 7.272 66.4008 7.172 66.5048 7.02C66.6168 6.86 66.7128 6.616 66.7928 6.288C66.8808 5.952 66.9648 5.5 67.0448 4.932L68.6288 5.184C68.5968 5.368 68.5648 5.564 68.5328 5.772C68.5008 5.98 68.4728 6.172 68.4488 6.348C68.4248 6.524 68.4128 6.668 68.4128 6.78C68.4128 6.884 68.4408 6.984 68.4968 7.08C68.5608 7.168 68.6728 7.24 68.8328 7.296C69.0008 7.352 69.2328 7.38 69.5288 7.38C69.8888 7.38 70.1528 7.304 70.3208 7.152C70.4968 6.992 70.5848 6.752 70.5848 6.432C70.5848 6.248 70.5808 6.052 70.5728 5.844C70.5648 5.628 70.5488 5.388 70.5248 5.124C70.5088 4.852 70.4768 4.544 70.4288 4.2L71.9768 4.08C72.0328 4.768 72.0968 5.328 72.1688 5.76C72.2408 6.192 72.3368 6.528 72.4568 6.768C72.5848 7 72.7528 7.16 72.9608 7.248C73.1768 7.336 73.4568 7.38 73.8008 7.38C74.1048 7.38 74.3208 7.46 74.4488 7.62C74.5848 7.772 74.6528 7.964 74.6528 8.196C74.6528 8.444 74.5688 8.652 74.4008 8.82C74.2408 8.98 74.0008 9.06 73.6808 9.06C73.4648 9.06 73.2408 9.04 73.0088 9C72.7768 8.968 72.5528 8.9 72.3368 8.796C72.1208 8.684 71.9288 8.524 71.7608 8.316C71.5928 8.108 71.4608 7.832 71.3648 7.488L71.5808 7.56C71.4688 7.96 71.3168 8.268 71.1248 8.484C70.9328 8.7 70.6968 8.852 70.4168 8.94C70.1368 9.02 69.8008 9.06 69.4088 9.06C69.0488 9.06 68.7288 9.012 68.4488 8.916C68.1688 8.82 67.9448 8.664 67.7768 8.448C67.6168 8.224 67.5328 7.924 67.5248 7.548H67.9328C67.7728 7.996 67.5888 8.328 67.3808 8.544C67.1728 8.76 66.9208 8.9 66.6248 8.964C66.3288 9.028 65.9568 9.06 65.5088 9.06C65.2368 9.06 64.9688 9.032 64.7048 8.976C64.4408 8.912 64.2048 8.772 63.9968 8.556C63.7888 8.332 63.6368 7.98 63.5408 7.5L64.1888 7.476C64.0208 7.948 63.8008 8.296 63.5288 8.52C63.2648 8.744 62.9608 8.892 62.6168 8.964C62.2728 9.028 61.8888 9.06 61.4648 9.06ZM73.6875 9.06L73.8075 7.38C74.2875 7.38 74.6555 7.356 74.9115 7.308C75.1675 7.26 75.3435 7.172 75.4395 7.044C75.5435 6.908 75.5955 6.716 75.5955 6.468C75.5955 6.244 75.5635 5.976 75.4995 5.664C75.4435 5.352 75.3675 5.028 75.2715 4.692C75.1835 4.356 75.0875 4.048 74.9835 3.768L76.6395 3.312C76.7435 3.584 76.8435 3.9 76.9395 4.26C77.0355 4.62 77.1155 4.992 77.1795 5.376C77.2435 5.752 77.2755 6.116 77.2755 6.468C77.2755 7.012 77.1875 7.456 77.0115 7.8C76.8355 8.136 76.5875 8.396 76.2675 8.58C75.9555 8.764 75.5795 8.892 75.1395 8.964C74.6995 9.028 74.2155 9.06 73.6875 9.06ZM76.9395 2.34C76.7075 2.34 76.5075 2.26 76.3395 2.1C76.1795 1.932 76.0995 1.736 76.0995 1.512C76.0995 1.28 76.1795 1.08 76.3395 0.912C76.5075 0.743999 76.7075 0.659999 76.9395 0.659999C77.1635 0.659999 77.3555 0.743999 77.5155 0.912C77.6755 1.08 77.7555 1.28 77.7555 1.512C77.7555 1.736 77.6755 1.932 77.5155 2.1C77.3555 2.26 77.1635 2.34 76.9395 2.34ZM74.8635 2.328C74.6315 2.328 74.4315 2.248 74.2635 2.088C74.1035 1.92 74.0235 1.724 74.0235 1.5C74.0235 1.268 74.1035 1.068 74.2635 0.9C74.4315 0.732 74.6315 0.648 74.8635 0.648C75.0875 0.648 75.2795 0.732 75.4395 0.9C75.5995 1.068 75.6795 1.268 75.6795 1.5C75.6795 1.724 75.5995 1.92 75.4395 2.088C75.2795 2.248 75.0875 2.328 74.8635 2.328Z" fill="#FF5733"/>
</svg>
