<svg width="113" height="27" viewBox="0 0 113 27" fill="none" xmlns="http://www.w3.org/2000/svg">
<path d="M0.468 17.496C0.468 17.22 0.492 16.896 0.54 16.524C0.588 16.152 0.678 15.732 0.81 15.264C0.942 14.784 1.14 14.25 1.404 13.662L3.618 14.436C3.486 14.808 3.372 15.15 3.276 15.462C3.18 15.762 3.108 16.044 3.06 16.308C3.012 16.56 2.988 16.812 2.988 17.064C2.988 17.46 3.072 17.814 3.24 18.126C3.42 18.45 3.678 18.72 4.014 18.936C4.35 19.164 4.758 19.338 5.238 19.458C5.73 19.578 6.294 19.638 6.93 19.638C7.59 19.638 8.178 19.608 8.694 19.548C9.222 19.488 9.666 19.398 10.026 19.278C10.398 19.158 10.68 19.002 10.872 18.81C11.064 18.63 11.16 18.42 11.16 18.18C11.16 18.072 11.118 17.97 11.034 17.874C10.962 17.778 10.836 17.676 10.656 17.568C10.488 17.46 10.26 17.346 9.972 17.226C9.696 17.106 9.36 16.974 8.964 16.83L9.558 14.292C10.074 14.508 10.56 14.7 11.016 14.868C11.484 15.024 11.928 15.156 12.348 15.264C12.768 15.36 13.164 15.438 13.536 15.498C13.908 15.546 14.256 15.57 14.58 15.57C15.036 15.57 15.36 15.69 15.552 15.93C15.744 16.158 15.84 16.446 15.84 16.794C15.84 17.166 15.714 17.478 15.462 17.73C15.21 17.97 14.856 18.09 14.4 18.09C14.304 18.09 14.208 18.09 14.112 18.09C14.028 18.09 13.938 18.09 13.842 18.09C13.758 18.09 13.668 18.09 13.572 18.09C13.596 18.21 13.608 18.312 13.608 18.396C13.608 18.492 13.608 18.582 13.608 18.666C13.608 19.062 13.47 19.464 13.194 19.872C12.93 20.28 12.516 20.658 11.952 21.006C11.388 21.354 10.668 21.63 9.792 21.834C8.928 22.05 7.896 22.158 6.696 22.158C5.4 22.158 4.284 21.99 3.348 21.654C2.424 21.33 1.71 20.82 1.206 20.124C0.714 19.44 0.468 18.564 0.468 17.496ZM8.46 26.334C8.112 26.334 7.812 26.208 7.56 25.956C7.32 25.716 7.2 25.428 7.2 25.092C7.2 24.744 7.32 24.444 7.56 24.192C7.812 23.94 8.112 23.814 8.46 23.814C8.796 23.814 9.084 23.94 9.324 24.192C9.564 24.444 9.684 24.744 9.684 25.092C9.684 25.428 9.564 25.716 9.324 25.956C9.084 26.208 8.796 26.334 8.46 26.334ZM5.346 26.334C4.998 26.334 4.698 26.208 4.446 25.956C4.206 25.716 4.086 25.428 4.086 25.092C4.086 24.744 4.206 24.444 4.446 24.192C4.698 23.94 4.998 23.814 5.346 23.814C5.682 23.814 5.97 23.94 6.21 24.192C6.45 24.444 6.57 24.744 6.57 25.092C6.57 25.428 6.45 25.716 6.21 25.956C5.97 26.208 5.682 26.334 5.346 26.334ZM14.3965 18.09L14.5765 15.57C14.8765 15.57 15.1045 15.51 15.2605 15.39C15.4165 15.27 15.5725 15.06 15.7285 14.76C15.8845 14.46 16.1005 14.052 16.3765 13.536C16.6765 12.96 16.9885 12.48 17.3125 12.096C17.6365 11.7 17.9605 11.388 18.2845 11.16C18.6205 10.92 18.9505 10.752 19.2745 10.656C19.6105 10.548 19.9405 10.494 20.2645 10.494C20.7085 10.494 21.1225 10.59 21.5065 10.782C21.9025 10.962 22.2805 11.28 22.6405 11.736C23.0005 12.18 23.3425 12.792 23.6665 13.572C23.8945 14.112 24.1225 14.526 24.3505 14.814C24.5785 15.102 24.8125 15.3 25.0525 15.408C25.3045 15.516 25.5565 15.57 25.8085 15.57C26.2645 15.57 26.5885 15.69 26.7805 15.93C26.9725 16.158 27.0685 16.446 27.0685 16.794C27.0685 17.166 26.9425 17.478 26.6905 17.73C26.4385 17.97 26.0845 18.09 25.6285 18.09C25.0405 18.09 24.5065 17.994 24.0265 17.802C23.5465 17.61 23.1685 17.322 22.8925 16.938L23.4145 16.542C23.3065 16.794 23.1445 17.058 22.9285 17.334C22.7245 17.61 22.4545 17.844 22.1185 18.036C21.7945 18.228 21.4045 18.324 20.9485 18.324C20.6485 18.324 20.2945 18.264 19.8865 18.144C19.4905 18.036 19.0765 17.85 18.6445 17.586C18.2245 17.31 17.8345 16.938 17.4745 16.47C17.2465 16.89 16.9945 17.22 16.7185 17.46C16.4425 17.688 16.1185 17.85 15.7465 17.946C15.3745 18.042 14.9245 18.09 14.3965 18.09ZM18.5185 14.346C18.6385 14.526 18.7825 14.706 18.9505 14.886C19.1185 15.066 19.3045 15.228 19.5085 15.372C19.7125 15.504 19.9285 15.612 20.1565 15.696C20.3965 15.78 20.6305 15.822 20.8585 15.822C21.0985 15.822 21.2965 15.732 21.4525 15.552C21.6085 15.36 21.6145 15.078 21.4705 14.706C21.4105 14.55 21.3265 14.376 21.2185 14.184C21.1225 13.98 21.0085 13.788 20.8765 13.608C20.7565 13.428 20.6185 13.278 20.4625 13.158C20.3185 13.038 20.1685 12.978 20.0125 12.978C19.8565 12.978 19.6945 13.026 19.5265 13.122C19.3585 13.218 19.1905 13.368 19.0225 13.572C18.8545 13.764 18.6865 14.022 18.5185 14.346ZM25.6289 18.09L25.8089 15.57C26.5289 15.57 27.0809 15.534 27.4649 15.462C27.8489 15.39 28.1129 15.258 28.2569 15.066C28.4129 14.862 28.4909 14.574 28.4909 14.202C28.4909 13.866 28.4429 13.464 28.3469 12.996C28.2629 12.528 28.1489 12.042 28.0049 11.538C27.8729 11.034 27.7289 10.572 27.5729 10.152L30.0569 9.468C30.2129 9.876 30.3629 10.35 30.5069 10.89C30.6509 11.43 30.7709 11.988 30.8669 12.564C30.9629 13.128 31.0109 13.674 31.0109 14.202C31.0109 15.018 30.8789 15.684 30.6149 16.2C30.3509 16.704 29.9789 17.094 29.4989 17.37C29.0309 17.646 28.4669 17.838 27.8069 17.946C27.1469 18.042 26.4209 18.09 25.6289 18.09ZM30.0749 22.266C29.7269 22.266 29.4269 22.14 29.1749 21.888C28.9349 21.648 28.8149 21.36 28.8149 21.024C28.8149 20.676 28.9349 20.376 29.1749 20.124C29.4269 19.872 29.7269 19.746 30.0749 19.746C30.4109 19.746 30.6989 19.872 30.9389 20.124C31.1789 20.376 31.2989 20.676 31.2989 21.024C31.2989 21.36 31.1789 21.648 30.9389 21.888C30.6989 22.14 30.4109 22.266 30.0749 22.266ZM26.9609 22.266C26.6129 22.266 26.3129 22.14 26.0609 21.888C25.8209 21.648 25.7009 21.36 25.7009 21.024C25.7009 20.676 25.8209 20.376 26.0609 20.124C26.3129 19.872 26.6129 19.746 26.9609 19.746C27.2969 19.746 27.5849 19.872 27.8249 20.124C28.0649 20.376 28.1849 20.676 28.1849 21.024C28.1849 21.36 28.0649 21.648 27.8249 21.888C27.5849 22.14 27.2969 22.266 26.9609 22.266ZM32.7277 17.28L33.6097 14.994C34.0537 15.186 34.4797 15.33 34.8877 15.426C35.2957 15.522 35.7037 15.57 36.1117 15.57C36.5317 15.57 36.8797 15.534 37.1557 15.462C37.4437 15.378 37.6597 15.258 37.8037 15.102C37.9477 14.946 38.0197 14.76 38.0197 14.544C38.0197 14.34 37.9537 14.058 37.8217 13.698C37.7017 13.338 37.4797 12.87 37.1557 12.294C36.8317 11.706 36.3577 10.98 35.7337 10.116L37.8757 8.694C38.4517 9.51 38.9497 10.308 39.3697 11.088C39.7897 11.856 40.1137 12.576 40.3417 13.248C40.5817 13.908 40.7017 14.49 40.7017 14.994C40.7017 15.618 40.5337 16.164 40.1977 16.632C39.8737 17.088 39.3877 17.448 38.7397 17.712C38.1037 17.976 37.3177 18.108 36.3817 18.108C36.0337 18.108 35.6437 18.078 35.2117 18.018C34.7797 17.958 34.3417 17.868 33.8977 17.748C33.4657 17.628 33.0757 17.472 32.7277 17.28ZM47.1025 18.09C45.9865 18.09 45.1225 17.976 44.5105 17.748C43.9105 17.52 43.4905 17.166 43.2505 16.686C43.0105 16.194 42.8725 15.576 42.8365 14.832L42.4585 4.824H44.9785L45.3565 13.626C45.3805 14.178 45.4405 14.592 45.5365 14.868C45.6325 15.144 45.8125 15.33 46.0765 15.426C46.3525 15.522 46.7545 15.57 47.2825 15.57C47.7385 15.57 48.0625 15.69 48.2545 15.93C48.4585 16.158 48.5605 16.446 48.5605 16.794C48.5605 17.166 48.4345 17.478 48.1825 17.73C47.9305 17.97 47.5705 18.09 47.1025 18.09ZM47.127 18.09L47.307 15.57H49.881C50.133 15.57 50.355 15.558 50.547 15.534C50.739 15.498 50.895 15.444 51.015 15.372C51.147 15.3 51.243 15.21 51.303 15.102C51.363 14.994 51.393 14.868 51.393 14.724C51.393 14.58 51.315 14.352 51.159 14.04C51.015 13.716 50.697 13.326 50.205 12.87C49.941 12.63 49.653 12.378 49.341 12.114C49.041 11.838 48.753 11.58 48.477 11.34C48.201 11.088 47.973 10.866 47.793 10.674C47.613 10.482 47.523 10.344 47.523 10.26C47.523 10.08 47.535 9.882 47.559 9.666C47.583 9.45 47.619 9.252 47.667 9.072C47.727 8.892 47.805 8.76 47.901 8.676C48.105 8.484 48.405 8.262 48.801 8.01C49.209 7.746 49.695 7.464 50.259 7.164C50.823 6.852 51.453 6.528 52.149 6.192C52.857 5.844 53.613 5.496 54.417 5.148L55.443 7.344C54.783 7.632 54.159 7.914 53.571 8.19C52.983 8.454 52.431 8.718 51.915 8.982C51.411 9.234 50.943 9.486 50.511 9.738C50.091 9.978 49.719 10.218 49.395 10.458L49.629 9.126C50.649 9.906 51.459 10.608 52.059 11.232C52.671 11.856 53.127 12.414 53.427 12.906C53.727 13.386 53.925 13.818 54.021 14.202C54.117 14.574 54.165 14.904 54.165 15.192C54.165 15.48 54.093 15.792 53.949 16.128C53.817 16.452 53.571 16.764 53.211 17.064C52.863 17.364 52.371 17.61 51.735 17.802C51.099 17.994 50.283 18.09 49.287 18.09H47.127ZM56.7048 18L56.3628 6.084H58.8828L59.2248 18H56.7048ZM55.7148 4.932L55.4088 3.672C55.8288 3.6 56.1408 3.54 56.3448 3.492C56.5608 3.444 56.7888 3.39 57.0288 3.33L56.8488 3.78C56.5368 3.672 56.2368 3.462 55.9488 3.15C55.6728 2.826 55.5348 2.46 55.5348 2.052C55.5348 1.62 55.6308 1.272 55.8228 1.008C56.0148 0.743999 56.2608 0.551999 56.5608 0.431999C56.8608 0.311999 57.1728 0.251999 57.4968 0.251999C57.6768 0.251999 57.8448 0.263999 58.0008 0.288C58.1688 0.311999 58.3188 0.347999 58.4508 0.395999L58.3068 1.692C58.1868 1.668 58.0668 1.644 57.9468 1.62C57.8268 1.596 57.6948 1.584 57.5508 1.584C57.3948 1.584 57.2508 1.638 57.1188 1.746C56.9988 1.842 56.9388 1.962 56.9388 2.106C56.9388 2.31 57.0108 2.49 57.1548 2.646C57.2988 2.802 57.4668 2.928 57.6588 3.024C57.8628 3.108 58.0308 3.156 58.1628 3.168L57.1728 3.276C57.4968 3.192 57.8028 3.108 58.0908 3.024C58.3788 2.928 58.6488 2.832 58.9008 2.736L59.2608 3.942C58.9608 4.05 58.6068 4.17 58.1988 4.302C57.8028 4.422 57.3888 4.536 56.9568 4.644C56.5368 4.752 56.1228 4.848 55.7148 4.932Z" fill="#2B4141"/>
<path d="M69.8972 21.384C69.0932 21.384 68.3372 21.294 67.6292 21.114C66.9332 20.946 66.3152 20.676 65.7752 20.304C65.2472 19.944 64.8332 19.47 64.5332 18.882C64.2332 18.306 64.0832 17.61 64.0832 16.794C64.0832 16.518 64.1012 16.206 64.1372 15.858C64.1852 15.51 64.2812 15.096 64.4252 14.616C64.5692 14.124 64.7912 13.554 65.0912 12.906L67.2872 13.752C67.1072 14.184 66.9692 14.55 66.8732 14.85C66.7772 15.138 66.7052 15.402 66.6572 15.642C66.6212 15.87 66.6032 16.11 66.6032 16.362C66.6032 16.758 66.6872 17.112 66.8552 17.424C67.0352 17.736 67.2812 18 67.5932 18.216C67.9172 18.432 68.3072 18.594 68.7632 18.702C69.2312 18.81 69.7532 18.864 70.3292 18.864C71.0732 18.864 71.7212 18.816 72.2732 18.72C72.8252 18.636 73.2872 18.51 73.6592 18.342C74.0432 18.186 74.3492 17.994 74.5772 17.766C74.8052 17.538 74.9672 17.292 75.0632 17.028C75.1832 16.716 75.2612 16.392 75.2972 16.056C75.3452 15.708 75.3692 15.312 75.3692 14.868C75.3692 14.34 75.3212 13.89 75.2252 13.518C75.1412 13.134 75.0092 12.84 74.8292 12.636C74.6492 12.432 74.4272 12.33 74.1632 12.33C73.9472 12.33 73.7492 12.402 73.5692 12.546C73.4012 12.69 73.2692 12.87 73.1732 13.086C73.0772 13.29 73.0292 13.5 73.0292 13.716C73.0292 13.896 73.0712 14.046 73.1552 14.166C73.2512 14.286 73.3892 14.382 73.5692 14.454C73.7492 14.514 73.9712 14.544 74.2352 14.544C74.4992 14.544 74.7932 14.514 75.1172 14.454C75.4412 14.382 75.7292 14.274 75.9812 14.13L76.1612 16.308C75.8732 16.536 75.4832 16.71 74.9912 16.83C74.5112 16.938 74.0612 16.992 73.6412 16.992C73.0172 16.992 72.4712 16.908 72.0032 16.74C71.5472 16.56 71.1932 16.266 70.9412 15.858C70.6892 15.45 70.5632 14.898 70.5632 14.202C70.5632 13.698 70.6532 13.194 70.8332 12.69C71.0132 12.174 71.2652 11.7 71.5892 11.268C71.9132 10.836 72.3032 10.494 72.7592 10.242C73.2152 9.978 73.7192 9.846 74.2712 9.846C75.0512 9.846 75.7052 10.074 76.2332 10.53C76.7732 10.974 77.1812 11.568 77.4572 12.312C77.7452 13.044 77.8892 13.842 77.8892 14.706C77.8892 15.51 77.8052 16.218 77.6372 16.83C77.4812 17.43 77.2772 17.964 77.0252 18.432C76.7252 18.96 76.3472 19.41 75.8912 19.782C75.4472 20.166 74.9252 20.472 74.3252 20.7C73.7372 20.94 73.0712 21.114 72.3272 21.222C71.5832 21.33 70.7732 21.384 69.8972 21.384ZM75.8732 8.208C75.5252 8.208 75.2252 8.088 74.9732 7.848C74.7332 7.596 74.6132 7.302 74.6132 6.966C74.6132 6.618 74.7332 6.318 74.9732 6.066C75.2252 5.814 75.5252 5.688 75.8732 5.688C76.2092 5.688 76.4972 5.814 76.7372 6.066C76.9772 6.318 77.0972 6.618 77.0972 6.966C77.0972 7.302 76.9772 7.596 76.7372 7.848C76.4972 8.088 76.2092 8.208 75.8732 8.208ZM72.7592 8.19C72.4112 8.19 72.1112 8.07 71.8592 7.83C71.6192 7.578 71.4992 7.284 71.4992 6.948C71.4992 6.6 71.6192 6.3 71.8592 6.048C72.1112 5.796 72.4112 5.67 72.7592 5.67C73.0952 5.67 73.3832 5.796 73.6232 6.048C73.8632 6.3 73.9832 6.6 73.9832 6.948C73.9832 7.284 73.8632 7.578 73.6232 7.83C73.3832 8.07 73.0952 8.19 72.7592 8.19ZM84.2978 18.09C83.1818 18.09 82.3178 17.976 81.7058 17.748C81.1058 17.52 80.6858 17.166 80.4458 16.686C80.2058 16.194 80.0678 15.576 80.0318 14.832L79.6538 4.824H82.1738L82.5518 13.626C82.5758 14.178 82.6358 14.592 82.7318 14.868C82.8278 15.144 83.0078 15.33 83.2718 15.426C83.5478 15.522 83.9498 15.57 84.4778 15.57C84.9338 15.57 85.2578 15.69 85.4498 15.93C85.6538 16.158 85.7558 16.446 85.7558 16.794C85.7558 17.166 85.6298 17.478 85.3778 17.73C85.1258 17.97 84.7658 18.09 84.2978 18.09ZM84.3223 18.09L84.5023 15.588C85.4983 15.588 86.2963 15.582 86.8963 15.57C87.5083 15.558 87.9823 15.534 88.3183 15.498C88.6663 15.45 88.9243 15.396 89.0923 15.336C89.2603 15.264 89.4043 15.186 89.5243 15.102C89.6683 14.994 89.7883 14.85 89.8843 14.67C89.9923 14.478 90.0763 14.226 90.1363 13.914C90.1963 13.602 90.2263 13.212 90.2263 12.744C90.2263 12.156 90.1723 11.664 90.0643 11.268C89.9683 10.86 89.8243 10.554 89.6323 10.35C89.4523 10.146 89.2303 10.044 88.9663 10.044C88.7743 10.044 88.5943 10.11 88.4263 10.242C88.2583 10.362 88.1203 10.53 88.0123 10.746C87.9043 10.962 87.8503 11.208 87.8503 11.484C87.8503 11.64 87.8923 11.778 87.9763 11.898C88.0603 12.018 88.1923 12.108 88.3723 12.168C88.5523 12.228 88.7803 12.258 89.0563 12.258C89.3203 12.258 89.5963 12.228 89.8843 12.168C90.1843 12.096 90.4603 12 90.7123 11.88L90.7843 14.022C90.5923 14.154 90.3703 14.274 90.1183 14.382C89.8663 14.49 89.5963 14.574 89.3083 14.634C89.0323 14.682 88.7503 14.706 88.4623 14.706C87.8263 14.706 87.2743 14.622 86.8063 14.454C86.3503 14.274 85.9963 13.986 85.7443 13.59C85.4923 13.194 85.3663 12.654 85.3663 11.97C85.3663 11.442 85.4563 10.92 85.6363 10.404C85.8163 9.876 86.0743 9.402 86.4103 8.982C86.7463 8.55 87.1423 8.208 87.5983 7.956C88.0543 7.692 88.5583 7.56 89.1103 7.56C89.9263 7.56 90.5983 7.8 91.1263 8.28C91.6663 8.748 92.0623 9.384 92.3143 10.188C92.5783 10.98 92.7103 11.862 92.7103 12.834C92.7103 13.686 92.5843 14.43 92.3323 15.066C92.0803 15.69 91.7803 16.182 91.4323 16.542C91.1443 16.842 90.8143 17.094 90.4423 17.298C90.0703 17.502 89.6143 17.664 89.0743 17.784C88.5463 17.892 87.8923 17.97 87.1123 18.018C86.3443 18.066 85.4143 18.09 84.3223 18.09ZM89.0743 5.886C88.7023 5.886 88.3843 5.76 88.1203 5.508C87.8683 5.256 87.7423 4.944 87.7423 4.572C87.7423 4.2 87.8683 3.882 88.1203 3.618C88.3843 3.354 88.7023 3.222 89.0743 3.222C89.4343 3.222 89.7403 3.354 89.9923 3.618C90.2563 3.882 90.3883 4.2 90.3883 4.572C90.3883 4.944 90.2563 5.256 89.9923 5.508C89.7403 5.76 89.4343 5.886 89.0743 5.886ZM94.4362 22.14L93.9142 19.62C94.7662 19.512 95.5102 19.38 96.1462 19.224C96.7822 19.08 97.3162 18.876 97.7482 18.612C98.1802 18.348 98.5042 17.988 98.7202 17.532C98.9362 17.064 99.0442 16.464 99.0442 15.732C99.0442 15.024 98.9362 14.46 98.7202 14.04C98.5042 13.62 98.2162 13.41 97.8562 13.41C97.6042 13.41 97.3942 13.5 97.2262 13.68C97.0582 13.848 96.9322 14.052 96.8482 14.292C96.7762 14.52 96.7402 14.724 96.7402 14.904C96.7402 15.012 96.7702 15.126 96.8302 15.246C96.8902 15.366 97.0222 15.468 97.2262 15.552C97.4302 15.636 97.7482 15.684 98.1802 15.696C98.6242 15.708 99.2242 15.666 99.9802 15.57H103.004C103.46 15.57 103.784 15.69 103.976 15.93C104.18 16.158 104.282 16.446 104.282 16.794C104.282 17.166 104.156 17.478 103.904 17.73C103.652 17.97 103.292 18.09 102.824 18.09H97.8742C97.1182 18.09 96.4702 18 95.9302 17.82C95.3902 17.64 94.9762 17.352 94.6882 16.956C94.4002 16.548 94.2562 16.008 94.2562 15.336C94.2562 14.796 94.3462 14.256 94.5262 13.716C94.7182 13.176 94.9822 12.684 95.3182 12.24C95.6542 11.784 96.0442 11.424 96.4882 11.16C96.9442 10.884 97.4362 10.746 97.9642 10.746C98.6842 10.746 99.3142 10.968 99.8542 11.412C100.394 11.856 100.814 12.444 101.114 13.176C101.426 13.908 101.582 14.706 101.582 15.57C101.582 16.926 101.294 18.078 100.718 19.026C100.142 19.974 99.3202 20.706 98.2522 21.222C97.1842 21.75 95.9122 22.056 94.4362 22.14ZM102.85 18.09L103.03 15.57C103.582 15.57 103.978 15.516 104.218 15.408C104.458 15.288 104.602 15.072 104.65 14.76C104.698 14.436 104.71 13.968 104.686 13.356L104.362 4.824H106.9L107.26 13.536C107.284 14.232 107.254 14.862 107.17 15.426C107.098 15.978 106.912 16.452 106.612 16.848C106.324 17.244 105.874 17.55 105.262 17.766C104.662 17.982 103.858 18.09 102.85 18.09ZM109.633 18L109.255 4.824H111.775L112.153 18H109.633Z" fill="#FF5733"/>
</svg>
