<svg width="57" height="12" viewBox="0 0 57 12" fill="none" xmlns="http://www.w3.org/2000/svg">
<path d="M3.48759 9.06C2.74359 9.06 2.16759 8.984 1.75959 8.832C1.35959 8.68 1.07959 8.444 0.919594 8.124C0.759594 7.796 0.667594 7.384 0.643594 6.888L0.391594 0.215999H2.07159L2.32359 6.084C2.33959 6.452 2.37959 6.728 2.44359 6.912C2.50759 7.096 2.62759 7.22 2.80359 7.284C2.98759 7.348 3.25559 7.38 3.60759 7.38C3.91159 7.38 4.12759 7.46 4.25559 7.62C4.39159 7.772 4.45959 7.964 4.45959 8.196C4.45959 8.444 4.37559 8.652 4.20759 8.82C4.03959 8.98 3.79959 9.06 3.48759 9.06ZM3.50391 9.06L3.62391 7.38C3.97591 7.38 4.25191 7.356 4.45191 7.308C4.65991 7.26 4.80791 7.172 4.89591 7.044C4.98391 6.908 5.02791 6.716 5.02791 6.468C5.02791 6.244 4.99591 5.976 4.93191 5.664C4.87591 5.352 4.79991 5.028 4.70391 4.692C4.60791 4.356 4.51191 4.048 4.41591 3.768L6.07191 3.312C6.16791 3.584 6.26391 3.9 6.35991 4.26C6.45591 4.62 6.53591 4.992 6.59991 5.376C6.67191 5.752 6.70791 6.116 6.70791 6.468C6.70791 6.908 6.65191 7.28 6.53991 7.584C6.42791 7.88 6.27191 8.128 6.07191 8.328C5.87991 8.52 5.64791 8.672 5.37591 8.784C5.11191 8.888 4.81991 8.96 4.49991 9C4.17991 9.04 3.84791 9.06 3.50391 9.06ZM5.23191 2.316C4.98391 2.316 4.77191 2.232 4.59591 2.064C4.42791 1.896 4.34391 1.688 4.34391 1.44C4.34391 1.192 4.42791 0.98 4.59591 0.804C4.77191 0.628 4.98391 0.539999 5.23191 0.539999C5.47191 0.539999 5.67591 0.628 5.84391 0.804C6.01991 0.98 6.10791 1.192 6.10791 1.44C6.10791 1.688 6.01991 1.896 5.84391 2.064C5.67591 2.232 5.47191 2.316 5.23191 2.316ZM11.1165 9.06C10.3725 9.06 9.7965 8.984 9.3885 8.832C8.9885 8.68 8.7085 8.444 8.5485 8.124C8.3885 7.796 8.2965 7.384 8.2725 6.888L8.0205 0.215999H9.7005L9.9525 6.084C9.9685 6.452 10.0085 6.728 10.0725 6.912C10.1365 7.096 10.2565 7.22 10.4325 7.284C10.6165 7.348 10.8845 7.38 11.2365 7.38C11.5405 7.38 11.7565 7.46 11.8845 7.62C12.0205 7.772 12.0885 7.964 12.0885 8.196C12.0885 8.444 12.0045 8.652 11.8365 8.82C11.6685 8.98 11.4285 9.06 11.1165 9.06ZM18.9808 9.06C18.6128 9.06 18.2688 9.032 17.9488 8.976C17.6368 8.92 17.3488 8.824 17.0848 8.688C16.8208 8.544 16.5848 8.348 16.3768 8.1C16.1768 7.852 16.0088 7.54 15.8728 7.164L16.8208 6.408C16.9648 6.664 17.1408 6.864 17.3488 7.008C17.5568 7.144 17.8048 7.24 18.0928 7.296C18.3808 7.352 18.7168 7.38 19.1008 7.38C19.4048 7.38 19.6208 7.46 19.7488 7.62C19.8768 7.772 19.9408 7.964 19.9408 8.196C19.9408 8.444 19.8568 8.652 19.6888 8.82C19.5288 8.98 19.2928 9.06 18.9808 9.06ZM11.1328 9.06L11.2528 7.38C11.6848 7.38 12.1128 7.356 12.5368 7.308C12.9608 7.26 13.3728 7.188 13.7728 7.092C14.1728 6.996 14.5528 6.872 14.9128 6.72C15.2808 6.568 15.6248 6.384 15.9448 6.168C15.7048 6.024 15.4448 5.9 15.1648 5.796C14.8848 5.692 14.5848 5.616 14.2648 5.568C13.9528 5.512 13.6208 5.484 13.2688 5.484C13.1408 5.484 13.0048 5.488 12.8608 5.496C12.7248 5.504 12.5848 5.52 12.4408 5.544C12.2968 5.56 12.1528 5.584 12.0088 5.616L11.7688 3.972C12.0008 3.908 12.2448 3.864 12.5008 3.84C12.7648 3.808 12.9968 3.792 13.1968 3.792C13.6288 3.792 14.0248 3.84 14.3848 3.936C14.7528 4.032 15.0888 4.152 15.3928 4.296C15.7048 4.44 15.9928 4.584 16.2568 4.728C16.5288 4.872 16.7848 4.992 17.0248 5.088C17.2728 5.184 17.5128 5.232 17.7448 5.232H18.1888L18.3808 6.828C18.0368 6.844 17.7128 6.912 17.4088 7.032C17.1128 7.144 16.8168 7.288 16.5208 7.464C16.2328 7.632 15.9208 7.808 15.5848 7.992C15.2568 8.176 14.8848 8.348 14.4688 8.508C14.0528 8.668 13.5728 8.8 13.0288 8.904C12.4848 9.008 11.8528 9.06 11.1328 9.06ZM14.5288 11.76C14.2968 11.76 14.0968 11.68 13.9288 11.52C13.7688 11.36 13.6888 11.164 13.6888 10.932C13.6888 10.7 13.7688 10.496 13.9288 10.32C14.0968 10.152 14.2968 10.068 14.5288 10.068C14.7608 10.068 14.9568 10.152 15.1168 10.32C15.2848 10.496 15.3688 10.7 15.3688 10.932C15.3688 11.164 15.2848 11.36 15.1168 11.52C14.9568 11.68 14.7608 11.76 14.5288 11.76ZM18.9844 9.06L19.1044 7.38C19.2884 7.38 19.4444 7.336 19.5724 7.248C19.7084 7.152 19.8484 6.996 19.9924 6.78C20.1364 6.556 20.3044 6.256 20.4964 5.88C20.7364 5.4 20.9844 5.024 21.2404 4.752C21.5044 4.48 21.7724 4.288 22.0444 4.176C22.3244 4.056 22.6044 3.996 22.8844 3.996C23.2364 3.996 23.5644 4.072 23.8684 4.224C24.1724 4.376 24.4364 4.584 24.6604 4.848C24.8844 5.104 25.0564 5.4 25.1764 5.736C25.3044 6.064 25.3684 6.404 25.3684 6.756C25.3684 7.18 25.2764 7.564 25.0924 7.908C24.9164 8.244 24.6684 8.512 24.3484 8.712C24.0364 8.904 23.6764 9 23.2684 9C22.9244 9 22.5244 8.94 22.0684 8.82C21.6124 8.7 21.1324 8.448 20.6284 8.064L21.2404 6.612C21.6004 6.86 21.9364 7.04 22.2484 7.152C22.5684 7.264 22.8324 7.32 23.0404 7.32C23.2004 7.32 23.3324 7.304 23.4364 7.272C23.5404 7.24 23.6164 7.188 23.6644 7.116C23.7124 7.044 23.7364 6.948 23.7364 6.828C23.7364 6.66 23.6964 6.488 23.6164 6.312C23.5364 6.136 23.4284 5.988 23.2924 5.868C23.1644 5.74 23.0124 5.676 22.8364 5.676C22.6684 5.676 22.5244 5.74 22.4044 5.868C22.2924 5.988 22.1804 6.164 22.0684 6.396C21.9644 6.62 21.8364 6.884 21.6844 7.188C21.5004 7.556 21.3204 7.864 21.1444 8.112C20.9684 8.352 20.7804 8.544 20.5804 8.688C20.3884 8.824 20.1604 8.92 19.8964 8.976C19.6404 9.032 19.3364 9.06 18.9844 9.06ZM28.5659 8.664C28.5659 8.48 28.5819 8.264 28.6139 8.016C28.6459 7.768 28.7059 7.488 28.7939 7.176C28.8819 6.856 29.0139 6.5 29.1899 6.108L30.6659 6.624C30.5779 6.872 30.5019 7.1 30.4379 7.308C30.3739 7.508 30.3259 7.696 30.2939 7.872C30.2619 8.04 30.2459 8.208 30.2459 8.376C30.2459 8.736 30.3339 9.048 30.5099 9.312C30.6939 9.584 30.9419 9.792 31.2539 9.936C31.5739 10.088 31.9419 10.164 32.3579 10.164C33.0379 10.164 33.5579 10.052 33.9179 9.828C34.2859 9.612 34.5339 9.268 34.6619 8.796C34.7979 8.316 34.8499 7.696 34.8179 6.936L34.5779 0.215999H36.2699L36.4499 5.892C36.4659 6.292 36.5219 6.6 36.6179 6.816C36.7139 7.032 36.8619 7.18 37.0619 7.26C37.2699 7.34 37.5379 7.38 37.8659 7.38C38.1699 7.38 38.3859 7.46 38.5139 7.62C38.6419 7.772 38.7059 7.964 38.7059 8.196C38.7059 8.444 38.6219 8.652 38.4539 8.82C38.2859 8.98 38.0499 9.06 37.7459 9.06C37.5699 9.06 37.3819 9.036 37.1819 8.988C36.9819 8.94 36.7899 8.864 36.6059 8.76C36.4219 8.656 36.2619 8.52 36.1259 8.352C35.9899 8.176 35.8979 7.96 35.8499 7.704L36.4979 7.38C36.4979 8.188 36.4019 8.872 36.2099 9.432C36.0259 9.992 35.7539 10.444 35.3939 10.788C35.0419 11.132 34.6059 11.38 34.0859 11.532C33.5739 11.692 32.9819 11.772 32.3099 11.772C31.7979 11.772 31.3139 11.708 30.8579 11.58C30.4099 11.452 30.0139 11.26 29.6699 11.004C29.3259 10.748 29.0539 10.424 28.8539 10.032C28.6619 9.648 28.5659 9.192 28.5659 8.664ZM45.5941 9.06C45.2261 9.06 44.8821 9.032 44.5621 8.976C44.2501 8.92 43.9621 8.824 43.6981 8.688C43.4341 8.544 43.1981 8.348 42.9901 8.1C42.7901 7.852 42.6221 7.54 42.4861 7.164L43.4341 6.408C43.5781 6.664 43.7541 6.864 43.9621 7.008C44.1701 7.144 44.4181 7.24 44.7061 7.296C44.9941 7.352 45.3301 7.38 45.7141 7.38C46.0181 7.38 46.2341 7.46 46.3621 7.62C46.4901 7.772 46.5541 7.964 46.5541 8.196C46.5541 8.444 46.4701 8.652 46.3021 8.82C46.1421 8.98 45.9061 9.06 45.5941 9.06ZM37.7461 9.06L37.8661 7.38C38.2981 7.38 38.7261 7.356 39.1501 7.308C39.5741 7.26 39.9861 7.188 40.3861 7.092C40.7861 6.996 41.1661 6.872 41.5261 6.72C41.8941 6.568 42.2381 6.384 42.5581 6.168C42.3181 6.024 42.0581 5.9 41.7781 5.796C41.4981 5.692 41.1981 5.616 40.8781 5.568C40.5661 5.512 40.2341 5.484 39.8821 5.484C39.7541 5.484 39.6181 5.488 39.4741 5.496C39.3381 5.504 39.1981 5.52 39.0541 5.544C38.9101 5.56 38.7661 5.584 38.6221 5.616L38.3821 3.972C38.6141 3.908 38.8581 3.864 39.1141 3.84C39.3781 3.808 39.6101 3.792 39.8101 3.792C40.2421 3.792 40.6381 3.84 40.9981 3.936C41.3661 4.032 41.7021 4.152 42.0061 4.296C42.3181 4.44 42.6061 4.584 42.8701 4.728C43.1421 4.872 43.3981 4.992 43.6381 5.088C43.8861 5.184 44.1261 5.232 44.3581 5.232H44.8021L44.9941 6.828C44.6501 6.844 44.3261 6.912 44.0221 7.032C43.7261 7.144 43.4301 7.288 43.1341 7.464C42.8461 7.632 42.5341 7.808 42.1981 7.992C41.8701 8.176 41.4981 8.348 41.0821 8.508C40.6661 8.668 40.1861 8.8 39.6421 8.904C39.0981 9.008 38.4661 9.06 37.7461 9.06ZM41.1421 11.76C40.9101 11.76 40.7101 11.68 40.5421 11.52C40.3821 11.36 40.3021 11.164 40.3021 10.932C40.3021 10.7 40.3821 10.496 40.5421 10.32C40.7101 10.152 40.9101 10.068 41.1421 10.068C41.3741 10.068 41.5701 10.152 41.7301 10.32C41.8981 10.496 41.9821 10.7 41.9821 10.932C41.9821 11.164 41.8981 11.36 41.7301 11.52C41.5701 11.68 41.3741 11.76 41.1421 11.76ZM45.5977 9.06L45.7177 7.38C45.9817 7.38 46.1977 7.36 46.3657 7.32C46.5337 7.272 46.6697 7.172 46.7737 7.02C46.8857 6.86 46.9817 6.624 47.0617 6.312C47.1497 5.992 47.2457 5.56 47.3497 5.016L48.9097 5.304C48.8857 5.424 48.8577 5.564 48.8257 5.724C48.7937 5.884 48.7657 6.048 48.7417 6.216C48.7177 6.376 48.7057 6.52 48.7057 6.648C48.7057 6.872 48.7777 7.052 48.9217 7.188C49.0657 7.316 49.3377 7.38 49.7377 7.38C49.9377 7.38 50.1097 7.36 50.2537 7.32C50.4057 7.272 50.5337 7.172 50.6377 7.02C50.7497 6.86 50.8457 6.616 50.9257 6.288C51.0137 5.952 51.0977 5.5 51.1777 4.932L52.7617 5.184C52.7297 5.368 52.6977 5.564 52.6657 5.772C52.6337 5.98 52.6057 6.172 52.5817 6.348C52.5577 6.524 52.5457 6.668 52.5457 6.78C52.5457 6.884 52.5737 6.984 52.6297 7.08C52.6937 7.168 52.8057 7.24 52.9657 7.296C53.1337 7.352 53.3697 7.38 53.6737 7.38C53.8897 7.38 54.0737 7.352 54.2257 7.296C54.3857 7.24 54.5057 7.148 54.5857 7.02C54.6737 6.892 54.7177 6.724 54.7177 6.516C54.7177 6.22 54.6497 5.832 54.5137 5.352C54.3777 4.872 54.2177 4.368 54.0337 3.84L55.7257 3.336C55.8537 3.68 55.9657 4.048 56.0617 4.44C56.1657 4.824 56.2457 5.2 56.3017 5.568C56.3657 5.928 56.3977 6.244 56.3977 6.516C56.3977 6.924 56.3337 7.288 56.2057 7.608C56.0777 7.92 55.8977 8.184 55.6657 8.4C55.4337 8.616 55.1577 8.78 54.8377 8.892C54.5177 9.004 54.1657 9.06 53.7817 9.06C53.3177 9.06 52.9377 9.016 52.6417 8.928C52.3457 8.832 52.1177 8.676 51.9577 8.46C51.8057 8.236 51.7057 7.932 51.6577 7.548H52.0657C51.8977 8.02 51.7097 8.364 51.5017 8.58C51.2937 8.788 51.0457 8.92 50.7577 8.976C50.4777 9.032 50.1257 9.06 49.7017 9.06C49.4377 9.06 49.1657 9.032 48.8857 8.976C48.6137 8.912 48.3697 8.768 48.1537 8.544C47.9377 8.32 47.7777 7.972 47.6737 7.5L48.3217 7.476C48.1537 7.948 47.9337 8.296 47.6617 8.52C47.3977 8.744 47.0937 8.892 46.7497 8.964C46.4057 9.028 46.0217 9.06 45.5977 9.06Z" fill="#FFF2EB"/>
</svg>
